<svg width="93" height="163" viewBox="0 0 93 163" fill="none" xmlns="http://www.w3.org/2000/svg">
<path d="M28.96 42.424C38.8587 41.7413 47.6053 41.4 55.2 41.4C76.2773 41.4 86.816 48.44 86.816 62.52C86.816 67.8107 85.28 72.376 82.208 76.216C79.136 79.9707 74.2293 82.5307 67.488 83.896C73.9733 84.664 79.0933 86.6267 82.848 89.784C86.6027 92.9413 88.48 98.4453 88.48 106.296C88.48 122.765 77.9413 131 56.864 131H28.96V42.424ZM39.584 129.72H56.864C64.4587 129.72 69.8347 127.757 72.992 123.832C76.2347 119.821 77.856 113.72 77.856 105.528C77.856 97.336 76.2347 91.8747 72.992 89.144C69.7493 86.4133 64.928 84.9627 58.528 84.792H39.584V129.72ZM55.2 42.68C50.2507 42.68 45.0453 42.9787 39.584 43.576V83.512H58.528C70.56 83 76.576 76.088 76.576 62.776C76.576 56.2907 74.784 51.3413 71.2 47.928C67.616 44.4293 62.2827 42.68 55.2 42.68Z" fill="black"/>
<path d="M8.96 30.424C18.8587 29.7413 27.6053 29.4 35.2 29.4C56.2773 29.4 66.816 36.44 66.816 50.52C66.816 55.8107 65.28 60.376 62.208 64.216C59.136 67.9707 54.2293 70.5307 47.488 71.896C53.9733 72.664 59.0933 74.6267 62.848 77.784C66.6027 80.9413 68.48 86.4453 68.48 94.296C68.48 110.765 57.9413 119 36.864 119H8.96V30.424ZM19.584 117.72H36.864C44.4587 117.72 49.8347 115.757 52.992 111.832C56.2347 107.821 57.856 101.72 57.856 93.528C57.856 85.336 56.2347 79.8747 52.992 77.144C49.7493 74.4133 44.928 72.9627 38.528 72.792H19.584V117.72ZM35.2 30.68C30.2507 30.68 25.0453 30.9787 19.584 31.576V71.512H38.528C50.56 71 56.576 64.088 56.576 50.776C56.576 44.2907 54.784 39.3413 51.2 35.928C47.616 32.4293 42.2827 30.68 35.2 30.68Z" fill="black"/>
</svg>
